<svg width="551" height="551" viewBox="0 0 551 551" fill="none" xmlns="http://www.w3.org/2000/svg">
<g clip-path="url(#clip0_107_51)">
<path d="M481.983 368.785L475.682 367.256L495.252 286.605L501.553 288.134L481.983 368.785Z" fill="white"/>
<path d="M442.985 393.185C444.348 391.238 446.068 389.791 448.144 388.846C450.236 387.912 452.425 387.526 454.711 387.687C456.985 387.863 459.097 388.633 461.044 389.996C463.008 391.371 464.455 393.091 465.384 395.156C466.317 397.248 466.696 399.431 466.519 401.706C466.358 403.991 465.596 406.108 464.233 408.056C462.859 410.02 461.131 411.46 459.05 412.378C456.974 413.323 454.798 413.707 452.524 413.53C450.254 413.381 448.138 412.619 446.174 411.245C444.226 409.882 442.785 408.154 441.852 406.061C440.907 403.985 440.514 401.804 440.675 399.519C440.841 397.26 441.611 395.149 442.985 393.185Z" fill="white"/>
<path d="M364.044 484.275L360.444 478.882L429.467 432.802L433.067 438.194L364.044 484.275Z" fill="white"/>
<path d="M318.346 475.762C320.671 475.263 322.915 475.374 325.079 476.096C327.248 476.836 329.114 478.043 330.679 479.717C332.225 481.394 333.247 483.396 333.746 485.72C334.249 488.064 334.137 490.308 333.412 492.453C332.672 494.621 331.463 496.478 329.785 498.024C328.111 499.589 326.112 500.621 323.788 501.12C321.444 501.622 319.198 501.502 317.048 500.757C314.884 500.036 313.029 498.836 311.484 497.159C309.923 495.504 308.891 493.505 308.388 491.161C307.889 488.837 308.01 486.591 308.75 484.422C309.472 482.258 310.669 480.393 312.343 478.829C314.001 477.287 316.002 476.265 318.346 475.762Z" fill="white"/>
<path d="M238.609 476.898C240.948 477.326 242.979 478.286 244.703 479.78C246.424 481.293 247.687 483.122 248.494 485.267C249.281 487.408 249.46 489.648 249.033 491.986C248.602 494.344 247.641 496.376 246.151 498.081C244.638 499.801 242.811 501.055 240.67 501.842C238.525 502.648 236.283 502.838 233.945 502.41C231.587 501.979 229.557 501.009 227.856 499.499C226.132 498.006 224.876 496.188 224.089 494.047C223.279 491.922 223.09 489.68 223.521 487.322C223.948 484.984 224.919 482.954 226.432 481.233C227.925 479.509 229.745 478.244 231.889 477.437C234.011 476.647 236.251 476.467 238.609 476.898Z" fill="white"/>
<path d="M186.583 459.881C188.725 460.912 190.43 462.376 191.697 464.273C192.956 466.187 193.691 468.285 193.901 470.567C194.094 472.84 193.675 475.047 192.644 477.19C191.604 479.349 190.14 481.054 188.252 482.304C186.338 483.563 184.244 484.289 181.971 484.482C179.69 484.692 177.478 484.282 175.335 483.251C173.176 482.211 171.475 480.738 170.233 478.833C168.966 476.936 168.236 474.851 168.043 472.578C167.825 470.314 168.235 468.102 169.274 465.942C170.305 463.8 171.778 462.1 173.692 460.84C175.589 459.573 177.678 458.834 179.96 458.624C182.215 458.423 184.423 458.842 186.583 459.881Z" fill="white"/>
<path d="M123.617 412.511C125.21 414.275 126.235 416.275 126.692 418.51C127.134 420.758 127.021 422.978 126.353 425.17C125.672 427.347 124.449 429.232 122.684 430.826C120.906 432.432 118.906 433.457 116.685 433.901C114.437 434.343 112.224 434.223 110.047 433.542C107.855 432.874 105.963 431.658 104.37 429.893C102.763 428.114 101.745 426.108 101.317 423.874C100.86 421.639 100.972 419.433 101.654 417.256C102.307 415.077 103.523 413.185 105.302 411.578C107.066 409.985 109.073 408.967 111.321 408.525C113.556 408.069 115.77 408.174 117.961 408.843C120.125 409.509 122.011 410.732 123.617 412.511Z" fill="white"/>
<path d="M52.6881 315.035L58.7585 312.758L87.914 390.459L81.8435 392.737L52.6881 315.035Z" fill="white"/>
<path d="M59.9781 207.105L66.4126 207.903L56.2043 290.264L49.7698 289.466L59.9781 207.105Z" fill="white"/>
<path d="M95.6901 178.793C94.5572 180.883 93.013 182.515 91.0576 183.69C89.085 184.856 86.9541 185.489 84.665 185.589C82.3853 185.672 80.2003 185.147 78.1103 184.014C76.0029 182.871 74.3704 181.327 73.2128 179.381C72.0472 177.409 71.423 175.282 71.3402 173.003C71.2401 170.714 71.7564 168.524 72.8893 166.434C74.0316 164.327 75.5844 162.699 77.5477 161.55C79.5031 160.375 81.6207 159.747 83.9004 159.664C86.1722 159.554 88.3618 160.071 90.4691 161.213C92.5592 162.346 94.187 163.899 95.3526 165.871C96.5275 167.827 97.165 169.949 97.2652 172.238C97.3574 174.5 96.8323 176.685 95.6901 178.793Z" fill="white"/>
<path d="M145.653 118.081C143.816 119.59 141.77 120.519 139.516 120.869C137.249 121.204 135.037 120.987 132.879 120.216C130.736 119.432 128.911 118.122 127.403 116.284C125.882 114.431 124.953 112.385 124.615 110.146C124.28 107.88 124.504 105.675 125.287 103.533C126.058 101.375 127.363 99.5419 129.2 98.0337C131.053 96.513 133.105 95.5913 135.357 95.2686C137.611 94.9182 139.809 95.1347 141.952 95.9181C144.097 96.6738 145.93 97.9781 147.451 99.831C148.959 101.669 149.881 103.721 150.216 105.988C150.566 108.242 150.356 110.448 149.585 112.605C148.817 114.735 147.506 116.561 145.653 118.081Z" fill="white"/>
<path d="M193.189 88.7634C191.013 89.722 188.793 90.0671 186.527 89.7987C184.254 89.5122 182.182 88.7077 180.311 87.3852C178.458 86.0547 177.052 84.3017 176.093 82.1262C175.126 79.9327 174.781 77.7123 175.058 75.4649C175.344 73.1916 176.153 71.1284 177.483 69.2753C178.806 67.4043 180.555 65.9894 182.73 65.0307C184.924 64.0641 187.148 63.728 189.403 64.0224C191.669 64.2909 193.728 65.0903 195.581 66.4208C197.444 67.7254 198.859 69.4744 199.826 71.6679C200.784 73.8434 201.12 76.0678 200.834 78.3411C200.566 80.6065 199.77 82.6747 198.447 84.5457C197.135 86.3909 195.382 87.7968 193.189 88.7634Z" fill="white"/>
<path d="M245.148 73.7142C242.796 74.0609 240.564 73.8041 238.451 72.9438C236.335 72.0641 234.551 70.7383 233.099 68.9664C231.665 67.1917 230.775 65.1284 230.428 62.7765C230.079 60.4051 230.336 58.1727 231.199 56.0793C232.079 53.9637 233.406 52.1892 235.181 50.7558C236.952 49.3031 239.014 48.4033 241.366 48.0566C243.738 47.7071 245.971 47.9736 248.068 48.8562C250.18 49.7165 251.954 51.034 253.387 52.8087C254.837 54.5611 255.736 56.623 256.086 58.9944C256.433 61.3464 256.166 63.5802 255.286 65.6958C254.426 67.8086 253.11 69.5914 251.338 71.0442C249.583 72.4747 247.52 73.3647 245.148 73.7142Z" fill="white"/>
<path d="M300.379 72.9442C298.02 72.6517 295.937 71.8095 294.129 70.4174C292.325 69.0058 290.958 67.2526 290.03 65.1578C289.121 63.0653 288.813 60.8395 289.105 58.4802C289.4 56.1014 290.242 54.0181 291.632 52.2303C293.044 50.4255 294.796 49.0687 296.888 48.16C298.983 47.2318 301.21 46.9138 303.569 47.2063C305.948 47.5011 308.03 48.3531 309.815 49.7623C311.623 51.1544 312.981 52.8966 313.889 54.989C314.82 57.0644 315.138 59.2915 314.843 61.6703C314.551 64.0296 313.699 66.1116 312.287 67.9165C310.895 69.7237 309.152 71.0915 307.057 72.0197C304.984 72.9308 302.758 73.239 300.379 72.9442Z" fill="white"/>
<path d="M375.866 97.6994C373.797 96.5281 372.193 94.9541 371.055 92.9774C369.926 90.9835 369.332 88.8413 369.275 86.5508C369.234 84.2699 369.799 82.095 370.97 80.0262C372.151 77.9403 373.725 76.3366 375.692 75.2151C377.686 74.0861 379.824 73.5012 382.104 73.4605C384.395 73.4026 386.575 73.9593 388.644 75.1306C390.729 76.3115 392.328 77.8941 393.44 79.8783C394.579 81.855 395.169 83.9838 395.209 86.2647C395.277 88.5382 394.72 90.7178 393.539 92.8037C392.368 94.8725 390.785 96.4714 388.791 97.6004C386.815 98.739 384.681 99.3373 382.391 99.3952C380.127 99.4456 377.952 98.8803 375.866 97.6994Z" fill="white"/>
<path d="M435.821 148.92C434.347 147.055 433.455 144.993 433.146 142.732C432.852 140.46 433.11 138.252 433.92 136.109C434.742 133.981 436.086 132.18 437.951 130.705C439.831 129.219 441.894 128.327 444.138 128.03C446.411 127.736 448.611 128 450.739 128.822C452.882 129.632 454.691 130.97 456.165 132.835C457.652 134.715 458.536 136.784 458.818 139.041C459.127 141.301 458.871 143.495 458.048 145.623C457.254 147.754 455.916 149.563 454.036 151.049C452.171 152.524 450.102 153.408 447.83 153.702C445.57 154.011 443.368 153.761 441.225 152.951C439.109 152.144 437.308 150.8 435.821 148.92Z" fill="white"/>
<path d="M500.469 250.653L494.265 252.538L470.141 173.13L476.345 171.245L500.469 250.653Z" fill="white"/>
<path d="M399.719 188.33L396.646 191.552L355.395 152.216L358.468 148.993L399.719 188.33Z" fill="white"/>
<path d="M399.886 218.819C399.195 217.339 398.926 215.82 399.077 214.26C399.24 212.695 399.762 211.26 400.642 209.956C401.528 208.664 402.711 207.672 404.191 206.982C405.683 206.286 407.202 206.016 408.75 206.173C410.315 206.336 411.743 206.861 413.036 207.747C414.34 208.627 415.337 209.807 416.028 211.287C416.724 212.779 416.987 214.301 416.819 215.854C416.668 217.414 416.149 218.84 415.263 220.132C414.395 221.43 413.215 222.428 411.723 223.124C410.243 223.814 408.721 224.078 407.155 223.915C405.596 223.764 404.164 223.248 402.86 222.368C401.573 221.494 400.582 220.311 399.886 218.819Z" fill="white"/>
<path d="M426.569 296.105L422.125 296.395L418.419 239.515L422.863 239.226L426.569 296.105Z" fill="white"/>
<path d="M405.848 318.909C406.35 317.355 407.187 316.058 408.359 315.018C409.544 313.983 410.903 313.287 412.436 312.931C413.965 312.588 415.506 312.667 417.06 313.169C418.626 313.674 419.923 314.511 420.95 315.679C421.986 316.864 422.675 318.221 423.018 319.75C423.374 321.283 423.301 322.826 422.8 324.38C422.294 325.947 421.451 327.241 420.27 328.264C419.098 329.304 417.747 329.995 416.218 330.338C414.698 330.698 413.155 330.626 411.588 330.12C410.034 329.618 408.74 328.775 407.704 327.59C406.665 326.418 405.967 325.065 405.611 323.533C405.263 322.017 405.343 320.475 405.848 318.909Z" fill="white"/>
<path d="M379.676 365.546C380.734 364.302 382.003 363.424 383.483 362.911C384.974 362.407 386.496 362.284 388.048 362.541C389.592 362.808 390.986 363.47 392.23 364.528C393.485 365.594 394.363 366.863 394.865 368.335C395.369 369.825 395.488 371.343 395.22 372.887C394.964 374.439 394.306 375.838 393.249 377.082C392.183 378.336 390.909 379.21 389.427 379.704C387.946 380.217 386.434 380.339 384.89 380.072C383.348 379.824 381.949 379.167 380.695 378.101C379.451 377.043 378.577 375.769 378.073 374.278C377.56 372.798 377.432 371.281 377.689 369.729C377.948 368.195 378.61 366.801 379.676 365.546Z" fill="white"/>
<path d="M352.297 390.001C353.646 389.081 355.102 388.57 356.665 388.467C358.236 388.375 359.737 388.659 361.166 389.317C362.584 389.983 363.753 390.991 364.673 392.34C365.601 393.7 366.112 395.156 366.208 396.708C366.299 398.279 366.012 399.774 365.346 401.192C364.687 402.621 363.683 403.796 362.335 404.716C360.975 405.644 359.515 406.15 357.955 406.234C356.391 406.336 354.901 406.055 353.482 405.389C352.061 404.741 350.886 403.738 349.958 402.378C349.038 401.029 348.532 399.569 348.441 397.998C348.338 396.434 348.616 394.938 349.274 393.509C349.929 392.098 350.937 390.929 352.297 390.001Z" fill="white"/>
<path d="M303.63 410.587C305.227 410.245 306.768 410.322 308.254 410.818C309.743 411.327 311.025 412.157 312.099 413.307C313.16 414.46 313.862 415.835 314.203 417.431C314.548 419.041 314.471 420.583 313.972 422.056C313.463 423.545 312.632 424.82 311.479 425.881C310.329 426.955 308.956 427.663 307.359 428.005C305.749 428.349 304.207 428.266 302.731 427.754C301.245 427.258 299.971 426.433 298.91 425.281C297.838 424.144 297.13 422.77 296.786 421.161C296.444 419.564 296.528 418.021 297.037 416.532C297.533 415.046 298.356 413.766 299.506 412.691C300.645 411.633 302.02 410.932 303.63 410.587Z" fill="white"/>
<path d="M222.31 419.135L223.04 414.742L279.269 424.084L278.539 428.477L222.31 419.135Z" fill="white"/>
<path d="M162.162 378.143L164.846 374.59L210.329 408.945L207.645 412.499L162.162 378.143Z" fill="white"/>
<path d="M158.656 348.144C159.51 349.536 159.951 351.015 159.978 352.581C159.994 354.155 159.639 355.64 158.912 357.036C158.179 358.42 157.116 359.539 155.725 360.393C154.322 361.255 152.842 361.695 151.287 361.716C149.714 361.731 148.235 361.373 146.85 360.639C145.454 359.912 144.329 358.853 143.475 357.462C142.614 356.059 142.179 354.576 142.17 353.014C142.143 351.447 142.496 349.972 143.23 348.587C143.945 347.199 145.004 346.074 146.407 345.212C147.798 344.358 149.281 343.923 150.855 343.907C152.421 343.88 153.902 344.23 155.298 344.956C156.676 345.678 157.795 346.741 158.656 348.144Z" fill="white"/>
<path d="M140.249 298.732C140.515 300.343 140.365 301.879 139.8 303.34C139.221 304.803 138.331 306.044 137.132 307.063C135.93 308.068 134.524 308.704 132.913 308.97C131.289 309.238 129.752 309.088 128.305 308.52C126.841 307.941 125.607 307.051 124.602 305.849C123.583 304.65 122.941 303.244 122.675 301.633C122.406 300.009 122.563 298.472 123.144 297.022C123.71 295.561 124.594 294.328 125.795 293.322C126.982 292.306 128.387 291.664 130.011 291.395C131.622 291.129 133.159 291.286 134.623 291.865C136.084 292.431 137.324 293.313 138.342 294.513C139.345 295.701 139.981 297.107 140.249 298.732Z" fill="white"/>
<path d="M139.236 261.29C139.059 262.913 138.502 264.352 137.564 265.608C136.613 266.861 135.423 267.818 133.994 268.476C132.566 269.122 131.041 269.356 129.418 269.179C127.781 269.001 126.342 268.443 125.1 267.507C123.846 266.556 122.897 265.367 122.251 263.939C121.592 262.51 121.352 260.984 121.528 259.36C121.707 257.724 122.271 256.285 123.22 255.045C124.158 253.79 125.341 252.839 126.768 252.194C128.184 251.534 129.71 251.293 131.347 251.471C132.97 251.648 134.409 252.212 135.662 253.163C136.918 254.101 137.875 255.284 138.533 256.713C139.18 258.128 139.414 259.653 139.236 261.29Z" fill="white"/>
<path d="M147.99 226.087C147.389 227.605 146.469 228.845 145.232 229.806C143.982 230.762 142.581 231.368 141.028 231.624C139.48 231.867 137.947 231.688 136.429 231.087C134.899 230.48 133.659 229.561 132.71 228.328C131.754 227.079 131.154 225.68 130.911 224.132C130.656 222.579 130.829 221.044 131.43 219.526C132.037 217.995 132.962 216.758 134.207 215.814C135.444 214.853 136.837 214.251 138.385 214.008C139.925 213.747 141.46 213.92 142.991 214.527C144.509 215.128 145.746 216.054 146.702 217.303C147.664 218.541 148.272 219.936 148.528 221.489C148.776 223.024 148.596 224.557 147.99 226.087Z" fill="white"/>
<path d="M166.128 193.787C165.143 195.09 163.927 196.04 162.478 196.637C161.019 197.226 159.507 197.437 157.942 197.269C156.385 197.091 154.956 196.51 153.653 195.526C152.339 194.534 151.389 193.317 150.803 191.877C150.214 190.418 150.009 188.91 150.187 187.353C150.354 185.788 150.93 184.354 151.914 183.051C152.906 181.738 154.128 180.792 155.579 180.214C157.028 179.617 158.531 179.408 160.087 179.586C161.641 179.745 163.075 180.32 164.389 181.313C165.692 182.297 166.638 183.519 167.226 184.978C167.823 186.427 168.038 187.933 167.871 189.498C167.701 191.044 167.12 192.474 166.128 193.787Z" fill="white"/>
<path d="M205.888 158.328C204.481 159.156 202.994 159.569 201.427 159.568C199.853 159.555 198.375 159.172 196.993 158.42C195.622 157.661 194.523 156.578 193.695 155.17C192.859 153.752 192.446 152.265 192.454 150.71C192.468 149.136 192.854 147.664 193.613 146.293C194.365 144.911 195.445 143.806 196.852 142.977C198.27 142.142 199.761 141.735 201.323 141.755C202.89 141.756 204.358 142.136 205.729 142.895C207.104 143.636 208.21 144.716 209.045 146.134C209.873 147.542 210.281 149.032 210.268 150.606C210.266 152.172 209.889 153.647 209.137 155.029C208.39 156.393 207.307 157.492 205.888 158.328Z" fill="white"/>
<path d="M255.776 140.782C254.16 141.018 252.627 140.841 251.177 140.248C249.724 139.643 248.5 138.731 247.503 137.513C246.52 136.294 245.91 134.876 245.673 133.26C245.435 131.631 245.612 130.098 246.207 128.661C246.812 127.209 247.725 125.991 248.945 125.007C250.162 124.011 251.579 123.394 253.195 123.157C254.824 122.919 256.358 123.103 257.797 123.711C259.247 124.303 260.464 125.209 261.448 126.429C262.442 127.633 263.059 129.05 263.298 130.679C263.534 132.295 263.35 133.829 262.744 135.281C262.152 136.732 261.247 137.955 260.029 138.952C258.823 139.933 257.405 140.543 255.776 140.782Z" fill="white"/>
<path d="M337.464 137.368L336.455 141.705L280.938 128.785L281.948 124.447L337.464 137.368Z" fill="white"/>
</g>
<defs>
<clipPath id="clip0_107_51">
<rect width="551" height="551" fill="white"/>
</clipPath>
</defs>
</svg>
